<mxfile host="app.diagrams.net" agent="Mozilla/5.0 (Windows NT 10.0; Win64; x64) AppleWebKit/537.36 (KHTML, like Gecko) Chrome/129.0.0.0 Safari/537.36" version="24.8.0">
  <diagram name="PÃ gina-1" id="MEiirFPaPkVt4ob9OPDf">
    <mxGraphModel grid="1" page="1" gridSize="10" guides="1" tooltips="1" connect="1" arrows="1" fold="1" pageScale="1" pageWidth="827" pageHeight="1169" math="0" shadow="0">
      <root>
        <mxCell id="0" />
        <mxCell id="1" parent="0" />
        <mxCell id="Ml6cNZUiSg_ovP3KAlp7-1" value="" style="endArrow=classic;html=1;rounded=0;fontSize=12;startSize=8;endSize=8;exitX=0.226;exitY=0.993;exitDx=0;exitDy=0;exitPerimeter=0;entryX=0.015;entryY=0.56;entryDx=0;entryDy=0;entryPerimeter=0;fillColor=#f8cecc;strokeColor=#b85450;" edge="1" parent="1" source="Ml6cNZUiSg_ovP3KAlp7-11" target="Ml6cNZUiSg_ovP3KAlp7-20">
          <mxGeometry relative="1" as="geometry">
            <mxPoint x="760" y="530" as="sourcePoint" />
            <mxPoint x="860" y="530" as="targetPoint" />
            <Array as="points">
              <mxPoint x="760" y="636" />
            </Array>
          </mxGeometry>
        </mxCell>
        <mxCell id="Ml6cNZUiSg_ovP3KAlp7-2" value="TCP/IP" style="edgeLabel;resizable=0;html=1;fontSize=12;;align=center;verticalAlign=middle;" connectable="0" vertex="1" parent="Ml6cNZUiSg_ovP3KAlp7-1">
          <mxGeometry relative="1" as="geometry" />
        </mxCell>
        <mxCell id="Ml6cNZUiSg_ovP3KAlp7-3" value="" style="shape=cube;whiteSpace=wrap;html=1;boundedLbl=1;backgroundOutline=1;darkOpacity=0.05;darkOpacity2=0.1;direction=east;flipH=1;fillColor=#c6ce00;strokeColor=#82b366;" vertex="1" parent="1">
          <mxGeometry x="30" y="90" width="350" height="260" as="geometry" />
        </mxCell>
        <mxCell id="Ml6cNZUiSg_ovP3KAlp7-4" value="&lt;span style=&quot;font-size: 12px;&quot;&gt;Bank server&lt;/span&gt;" style="text;html=1;align=center;verticalAlign=middle;whiteSpace=wrap;rounded=0;fontSize=16;" vertex="1" parent="1">
          <mxGeometry x="40" y="110" width="70" height="30" as="geometry" />
        </mxCell>
        <mxCell id="Ml6cNZUiSg_ovP3KAlp7-5" value="Custome DB" style="rounded=1;whiteSpace=wrap;html=1;fillColor=#b1ddf0;strokeColor=#10739e;" vertex="1" parent="1">
          <mxGeometry x="40" y="150" width="120" height="40" as="geometry" />
        </mxCell>
        <mxCell id="Ml6cNZUiSg_ovP3KAlp7-6" value="Mortagage&lt;div&gt;Application&lt;/div&gt;" style="rounded=1;whiteSpace=wrap;html=1;fillColor=#ffe6cc;strokeColor=#d79b00;" vertex="1" parent="1">
          <mxGeometry x="200" y="150" width="150" height="100" as="geometry" />
        </mxCell>
        <mxCell id="Ml6cNZUiSg_ovP3KAlp7-7" value="" style="rounded=1;whiteSpace=wrap;html=1;fillColor=#ffe6cc;strokeColor=#d79b00;" vertex="1" parent="1">
          <mxGeometry x="180" y="170" width="50" height="20" as="geometry" />
        </mxCell>
        <mxCell id="Ml6cNZUiSg_ovP3KAlp7-8" value="" style="rounded=1;whiteSpace=wrap;html=1;fillColor=#ffe6cc;strokeColor=#d79b00;" vertex="1" parent="1">
          <mxGeometry x="180" y="210" width="50" height="20" as="geometry" />
        </mxCell>
        <mxCell id="Ml6cNZUiSg_ovP3KAlp7-9" value="" style="endArrow=classic;html=1;rounded=0;fontSize=12;startSize=8;endSize=8;entryX=0.5;entryY=1;entryDx=0;entryDy=0;exitX=0.25;exitY=1;exitDx=0;exitDy=0;fillColor=#d5e8d4;strokeColor=#82b366;gradientColor=#97d077;" edge="1" parent="1">
          <mxGeometry width="50" height="50" relative="1" as="geometry">
            <mxPoint x="270.25" y="250" as="sourcePoint" />
            <mxPoint x="99.75" y="190" as="targetPoint" />
            <Array as="points">
              <mxPoint x="269.75" y="290" />
              <mxPoint x="99.75" y="290" />
            </Array>
          </mxGeometry>
        </mxCell>
        <mxCell id="Ml6cNZUiSg_ovP3KAlp7-10" value="" style="ellipse;whiteSpace=wrap;html=1;aspect=fixed;strokeWidth=1;" vertex="1" parent="1">
          <mxGeometry x="287" y="280" width="20" height="20" as="geometry" />
        </mxCell>
        <mxCell id="Ml6cNZUiSg_ovP3KAlp7-11" value="" style="shape=cube;whiteSpace=wrap;html=1;boundedLbl=1;backgroundOutline=1;darkOpacity=0.05;darkOpacity2=0.1;direction=east;flipH=1;fillColor=#00ffee;strokeColor=#6c8ebf;" vertex="1" parent="1">
          <mxGeometry x="480" y="90" width="360" height="260" as="geometry" />
        </mxCell>
        <mxCell id="Ml6cNZUiSg_ovP3KAlp7-12" value="&lt;span style=&quot;font-size: 12px;&quot;&gt;Real Estate Server&lt;/span&gt;" style="text;html=1;align=center;verticalAlign=middle;whiteSpace=wrap;rounded=0;fontSize=16;" vertex="1" parent="1">
          <mxGeometry x="490" y="110" width="120" height="30" as="geometry" />
        </mxCell>
        <mxCell id="Ml6cNZUiSg_ovP3KAlp7-13" value="Multiple Listings" style="rounded=1;whiteSpace=wrap;html=1;fillColor=#b1ddf0;strokeColor=#10739e;" vertex="1" parent="1">
          <mxGeometry x="690" y="180" width="120" height="40" as="geometry" />
        </mxCell>
        <mxCell id="Ml6cNZUiSg_ovP3KAlp7-14" value="Real Estate&amp;nbsp;&lt;div&gt;Listing&lt;/div&gt;" style="rounded=1;whiteSpace=wrap;html=1;fillColor=#fad7ac;strokeColor=#b46504;" vertex="1" parent="1">
          <mxGeometry x="510" y="149" width="150" height="100" as="geometry" />
        </mxCell>
        <mxCell id="Ml6cNZUiSg_ovP3KAlp7-15" value="" style="rounded=1;whiteSpace=wrap;html=1;fillColor=#fad7ac;strokeColor=#b46504;" vertex="1" parent="1">
          <mxGeometry x="490" y="169" width="50" height="20" as="geometry" />
        </mxCell>
        <mxCell id="Ml6cNZUiSg_ovP3KAlp7-16" value="" style="rounded=1;whiteSpace=wrap;html=1;fillColor=#fad7ac;strokeColor=#b46504;" vertex="1" parent="1">
          <mxGeometry x="490" y="209" width="50" height="20" as="geometry" />
        </mxCell>
        <mxCell id="Ml6cNZUiSg_ovP3KAlp7-17" value="" style="endArrow=none;html=1;rounded=0;fontSize=12;startSize=8;endSize=8;curved=1;" edge="1" parent="1">
          <mxGeometry width="50" height="50" relative="1" as="geometry">
            <mxPoint x="585" y="279" as="sourcePoint" />
            <mxPoint x="585" y="249" as="targetPoint" />
          </mxGeometry>
        </mxCell>
        <mxCell id="Ml6cNZUiSg_ovP3KAlp7-18" value="" style="ellipse;whiteSpace=wrap;html=1;aspect=fixed;strokeWidth=1;" vertex="1" parent="1">
          <mxGeometry x="575" y="279" width="20" height="20" as="geometry" />
        </mxCell>
        <mxCell id="Ml6cNZUiSg_ovP3KAlp7-19" value="" style="endArrow=classic;html=1;rounded=0;fontSize=12;startSize=8;endSize=8;curved=1;exitX=1;exitY=0.5;exitDx=0;exitDy=0;fillColor=#d5e8d4;strokeColor=#82b366;" edge="1" parent="1" source="Ml6cNZUiSg_ovP3KAlp7-14">
          <mxGeometry width="50" height="50" relative="1" as="geometry">
            <mxPoint x="710" y="270" as="sourcePoint" />
            <mxPoint x="690" y="200" as="targetPoint" />
          </mxGeometry>
        </mxCell>
        <mxCell id="Ml6cNZUiSg_ovP3KAlp7-20" value="" style="shape=cube;whiteSpace=wrap;html=1;boundedLbl=1;backgroundOutline=1;darkOpacity=0.05;darkOpacity2=0.1;direction=east;flipH=1;fillColor=#fff2cc;strokeColor=#d6b656;" vertex="1" parent="1">
          <mxGeometry x="290" y="530" width="270" height="190" as="geometry" />
        </mxCell>
        <mxCell id="Ml6cNZUiSg_ovP3KAlp7-21" value="&lt;span style=&quot;font-size: 12px;&quot;&gt;Individual Machine&lt;/span&gt;" style="text;html=1;align=center;verticalAlign=middle;whiteSpace=wrap;rounded=0;fontSize=16;" vertex="1" parent="1">
          <mxGeometry x="296" y="550" width="120" height="30" as="geometry" />
        </mxCell>
        <mxCell id="Ml6cNZUiSg_ovP3KAlp7-22" value="Buyer&amp;nbsp;&lt;div&gt;Interface&lt;/div&gt;" style="rounded=1;whiteSpace=wrap;html=1;fillColor=#fad7ac;strokeColor=#b46504;" vertex="1" parent="1">
          <mxGeometry x="347" y="590" width="150" height="100" as="geometry" />
        </mxCell>
        <mxCell id="Ml6cNZUiSg_ovP3KAlp7-23" value="" style="rounded=1;whiteSpace=wrap;html=1;fillColor=#fad7ac;strokeColor=#b46504;" vertex="1" parent="1">
          <mxGeometry x="327" y="610" width="50" height="20" as="geometry" />
        </mxCell>
        <mxCell id="Ml6cNZUiSg_ovP3KAlp7-24" value="" style="rounded=1;whiteSpace=wrap;html=1;fillColor=#fad7ac;strokeColor=#b46504;" vertex="1" parent="1">
          <mxGeometry x="327" y="650" width="50" height="20" as="geometry" />
        </mxCell>
        <mxCell id="Ml6cNZUiSg_ovP3KAlp7-25" value="&lt;span style=&quot;font-size: 12px;&quot;&gt;Mortagage Application&lt;/span&gt;" style="text;html=1;align=center;verticalAlign=middle;whiteSpace=wrap;rounded=0;fontSize=16;" vertex="1" parent="1">
          <mxGeometry x="143" y="299" width="130" height="30" as="geometry" />
        </mxCell>
        <mxCell id="Ml6cNZUiSg_ovP3KAlp7-26" value="&lt;span style=&quot;font-size: 12px;&quot;&gt;Listing&lt;/span&gt;" style="text;html=1;align=center;verticalAlign=middle;whiteSpace=wrap;rounded=0;fontSize=16;" vertex="1" parent="1">
          <mxGeometry x="595" y="290" width="40" height="30" as="geometry" />
        </mxCell>
        <mxCell id="Ml6cNZUiSg_ovP3KAlp7-27" value="" style="endArrow=classic;html=1;rounded=0;fontSize=12;startSize=8;endSize=8;entryX=0.5;entryY=1;entryDx=0;entryDy=0;exitX=0.25;exitY=0;exitDx=0;exitDy=0;fillColor=#008a00;strokeColor=#005700;dashed=1;" edge="1" parent="1" source="Ml6cNZUiSg_ovP3KAlp7-22" target="Ml6cNZUiSg_ovP3KAlp7-10">
          <mxGeometry width="50" height="50" relative="1" as="geometry">
            <mxPoint x="370" y="460" as="sourcePoint" />
            <mxPoint x="420" y="410" as="targetPoint" />
            <Array as="points">
              <mxPoint x="385" y="450" />
              <mxPoint x="297" y="450" />
            </Array>
          </mxGeometry>
        </mxCell>
        <mxCell id="Ml6cNZUiSg_ovP3KAlp7-28" value="" style="endArrow=classic;html=1;rounded=0;fontSize=12;startSize=8;endSize=8;entryX=0.5;entryY=1;entryDx=0;entryDy=0;exitX=0.75;exitY=0;exitDx=0;exitDy=0;fillColor=#008a00;strokeColor=#005700;dashed=1;" edge="1" parent="1" source="Ml6cNZUiSg_ovP3KAlp7-22" target="Ml6cNZUiSg_ovP3KAlp7-18">
          <mxGeometry width="50" height="50" relative="1" as="geometry">
            <mxPoint x="540" y="470" as="sourcePoint" />
            <mxPoint x="640" y="460" as="targetPoint" />
            <Array as="points">
              <mxPoint x="460" y="450" />
              <mxPoint x="520" y="450" />
              <mxPoint x="585" y="450" />
            </Array>
          </mxGeometry>
        </mxCell>
        <mxCell id="Ml6cNZUiSg_ovP3KAlp7-29" value="" style="endArrow=classic;html=1;rounded=0;fontSize=12;startSize=8;endSize=8;entryX=0;entryY=0;entryDx=270;entryDy=115;entryPerimeter=0;exitX=0.757;exitY=0.99;exitDx=0;exitDy=0;exitPerimeter=0;fillColor=#f8cecc;strokeColor=#b85450;" edge="1" parent="1" source="Ml6cNZUiSg_ovP3KAlp7-3" target="Ml6cNZUiSg_ovP3KAlp7-20">
          <mxGeometry relative="1" as="geometry">
            <mxPoint x="50" y="450" as="sourcePoint" />
            <mxPoint x="150" y="450" as="targetPoint" />
            <Array as="points">
              <mxPoint x="115" y="645" />
            </Array>
          </mxGeometry>
        </mxCell>
        <mxCell id="Ml6cNZUiSg_ovP3KAlp7-30" value="TCP/IP" style="edgeLabel;resizable=0;html=1;fontSize=12;;align=center;verticalAlign=middle;" connectable="0" vertex="1" parent="Ml6cNZUiSg_ovP3KAlp7-29">
          <mxGeometry relative="1" as="geometry" />
        </mxCell>
        <mxCell id="Ml6cNZUiSg_ovP3KAlp7-31" value="" style="endArrow=none;html=1;rounded=0;entryX=0.64;entryY=1.008;entryDx=0;entryDy=0;entryPerimeter=0;" edge="1" parent="1" source="Ml6cNZUiSg_ovP3KAlp7-10" target="Ml6cNZUiSg_ovP3KAlp7-6">
          <mxGeometry width="50" height="50" relative="1" as="geometry">
            <mxPoint x="400" y="390" as="sourcePoint" />
            <mxPoint x="450" y="340" as="targetPoint" />
          </mxGeometry>
        </mxCell>
      </root>
    </mxGraphModel>
  </diagram>
</mxfile>
